<?xml version="1.0" standalone="no"?>
<!DOCTYPE svg PUBLIC "-//W3C//DTD SVG 20010904//EN"
    "http://www.w3.org/TR/2001/REC-SVG-20010904/DTD/svg10.dtd">
<svg version="1.0" xmlns="http://www.w3.org/2000/svg"
     width="154" height="130"  viewBox="0 0 192.000000 192.000000"
     preserveAspectRatio="xMidYMid meet">

    <g transform="translate(0.000000,192.000000) scale(0.100000,-0.100000)"
       fill="#ffffff" stroke="none">
        <path d="M157 1906 c-59 -22 -103 -62 -131 -119 l-26 -53 2 -785 3 -786 30
-49 c19 -30 49 -60 79 -79 l49 -30 797 0 797 0 49 30 c30 19 60 49 79 79 l30
49 0 797 0 797 -30 49 c-19 30 -49 60 -79 79 l-49 30 -781 2 c-635 2 -788 0
-819 -11z m948 -431 c92 -24 169 -71 239 -146 101 -106 152 -238 144 -369 l-3
-55 -34 88 c-19 49 -42 94 -51 100 -10 7 -20 22 -24 34 -8 25 -78 60 -151 76
-47 9 -55 8 -87 -11 -32 -20 -49 -22 -178 -22 -129 0 -146 2 -178 22 -32 19
-40 20 -87 11 -73 -16 -143 -51 -151 -76 -4 -12 -15 -27 -24 -34 -10 -7 -27
-39 -40 -73 -12 -33 -25 -60 -28 -60 -11 0 10 135 30 188 58 157 195 285 349
326 72 19 201 20 274 1z m-390 -304 c-6 -4 -30 -15 -55 -24 -25 -8 -54 -18
-65 -22 -14 -6 -17 -5 -10 3 6 6 37 20 70 31 69 23 72 24 60 12z m599 -30 c16
-6 27 -13 25 -16 -5 -5 -125 37 -135 48 -8 7 60 -12 110 -32z m-276 -8 c-43
-2 -113 -2 -155 0 -43 1 -8 3 77 3 85 0 120 -2 78 -3z m-248 -68 l60 -55 110
0 110 0 60 55 c33 30 67 55 76 55 18 0 115 -26 156 -42 23 -8 34 -28 67 -112
85 -218 111 -360 82 -448 -14 -42 -53 -78 -84 -78 -12 0 -60 40 -119 97 l-99
98 -249 0 -249 0 -99 -98 c-59 -57 -107 -97 -119 -97 -31 0 -70 36 -84 78 -29
88 -3 230 82 448 43 110 39 107 144 137 81 24 90 22 155 -38z m408 -469 c15
-8 35 -23 46 -34 18 -21 18 -21 -15 -41 -96 -59 -242 -82 -359 -57 -84 18
-203 72 -197 89 2 7 18 22 37 35 32 21 42 22 247 22 164 0 220 -3 241 -14z"/>
        <path d="M1220 1050 c-15 -29 -3 -59 26 -66 30 -8 54 11 54 40 0 46 -59 64
-80 26z m57 -16 c3 -8 1 -20 -6 -27 -14 -14 -47 15 -37 32 10 16 36 13 43 -5z"/>
        <path d="M615 1015 c-41 -40 -32 -99 18 -120 36 -15 82 -3 97 25 19 35 12 77
-16 99 -35 28 -69 26 -99 -4z m99 -37 c20 -57 -57 -93 -90 -43 -15 23 -15 27
0 51 24 36 76 31 90 -8z"/>
        <path d="M637 978 c-6 -18 11 -48 27 -48 20 0 37 25 30 44 -7 19 -50 22 -57 4z"/>
        <path d="M1158 989 c-25 -14 -22 -55 4 -73 19 -13 25 -14 43 -2 26 17 31 49
10 70 -19 18 -33 20 -57 5z m17 -29 c-3 -11 -2 -20 4 -20 5 0 12 8 14 18 4 15
5 15 6 0 0 -9 -4 -20 -10 -24 -15 -9 -33 12 -26 30 9 23 19 19 12 -4z"/>
        <path d="M1302 988 c-13 -13 -16 -47 -4 -64 13 -19 39 -23 61 -8 26 19 27 45
3 67 -22 20 -43 22 -60 5z"/>
        <path d="M884 939 c-3 -6 0 -17 8 -25 13 -13 16 -13 27 0 7 8 10 20 6 26 -8
13 -32 13 -41 -1z"/>
        <path d="M994 939 c-3 -6 0 -17 7 -25 18 -17 44 -2 36 20 -7 18 -33 21 -43 5z"/>
        <path d="M1222 908 c-17 -17 -15 -42 6 -61 37 -34 76 -11 70 40 -2 23 -8 29
-33 31 -17 2 -36 -3 -43 -10z m55 -24 c8 -22 -18 -37 -36 -20 -7 8 -10 19 -7
25 10 16 36 13 43 -5z"/>
        <path d="M759 865 c-56 -31 -63 -125 -12 -165 28 -22 82 -26 114 -10 24 13 49
61 49 94 0 64 -94 114 -151 81z m90 -20 c74 -38 44 -145 -40 -145 -82 0 -110
120 -36 150 32 13 44 12 76 -5z"/>
        <path d="M790 820 c0 -13 -7 -20 -20 -20 -15 0 -20 -7 -20 -25 0 -18 5 -25 20
-25 11 0 20 -7 20 -15 0 -9 10 -15 26 -15 19 0 25 4 20 15 -4 10 1 15 14 15
15 0 20 7 20 25 0 15 -6 25 -14 25 -7 0 -16 9 -19 20 -3 12 -14 20 -26 20 -14
0 -21 -6 -21 -20z"/>
        <path d="M1065 825 c-28 -27 -30 -42 -14 -79 17 -37 60 -51 97 -32 47 24 55
66 21 110 -27 34 -71 35 -104 1z m93 -7 c22 -22 14 -66 -14 -85 -24 -15 -29
-15 -53 -2 -31 17 -39 59 -16 83 19 19 66 21 83 4z"/>
        <path d="M1091 792 c-12 -22 3 -42 30 -42 22 0 33 28 18 46 -16 19 -36 17 -48
-4z"/>
    </g>
</svg>
